<?xml version="1.0" ?><svg style="enable-background:new 0 0 64 64;" version="1.1" viewBox="0 0 64 64" xml:space="preserve" xmlns="http://www.w3.org/2000/svg" xmlns:xlink="http://www.w3.org/1999/xlink"><style type="text/css">
	.st0{fill:none;stroke:#000000;stroke-width:2;stroke-linecap:round;stroke-linejoin:round;stroke-miterlimit:10;}
	.st1{fill:none;stroke:#000000;stroke-width:2;stroke-miterlimit:10;}
</style><g id="Layer_1"/><g id="Layer_2"><g><path class="st0" d="M50.7,20.5C50.7,30.7,32,62,32,62S13.3,30.7,13.3,20.5S21.7,2,32,2S50.7,10.3,50.7,20.5z"/><circle class="st0" cx="32" cy="20.8" r="9.4"/><path class="st0" d="M34.1,17.7c1,0.7,1.7,1.8,1.7,3.1c0,2.1-1.7,3.7-3.7,3.7c-0.6,0-1.1-0.1-1.6-0.4"/><g><path class="st0" d="M26.6,39.2c-1-1.8-2-3.8-3-5.8"/><path class="st0" d="M37.4,39.2c-2.9,5.5-5.4,9.6-5.4,9.6s-0.9-1.5-2.2-3.8"/></g></g></g></svg>