<?xml version="1.0" standalone="no"?>
<!DOCTYPE svg PUBLIC "-//W3C//DTD SVG 20010904//EN"
 "http://www.w3.org/TR/2001/REC-SVG-20010904/DTD/svg10.dtd">
<svg version="1.0" xmlns="http://www.w3.org/2000/svg"
 width="1200.000000pt" height="1200.000000pt" viewBox="0 0 1200.000000 1200.000000"
 preserveAspectRatio="xMidYMid meet">

<g transform="translate(0.000000,1200.000000) scale(0.100000,-0.100000)"
fill="#000000" stroke="none">
<path d="M4320 6000 c0 -1042 2 -1180 15 -1180 13 0 15 138 15 1180 0 1042 -2
1180 -15 1180 -13 0 -15 -138 -15 -1180z"/>
<path d="M7896 6569 c-32 -25 -35 -70 -6 -99 29 -29 99 -28 128 3 46 48 9 117
-63 117 -18 0 -44 -9 -59 -21z"/>
<path d="M8212 6570 c-28 -26 -29 -73 -2 -100 44 -44 150 -11 150 46 0 63 -99
99 -148 54z"/>
<path d="M5515 6377 c-154 -40 -259 -156 -301 -334 -24 -102 -15 -324 17 -418
35 -103 98 -182 181 -224 58 -29 79 -34 160 -38 102 -5 199 12 268 47 l40 20
0 220 0 220 -155 0 -155 0 2 -45 2 -45 103 0 103 0 0 -141 0 -140 -37 -17
c-26 -11 -65 -16 -123 -16 -72 0 -93 4 -136 27 -67 34 -108 85 -136 167 -20
56 -23 85 -23 215 1 132 4 157 24 208 60 150 170 217 331 200 l60 -6 0 -84 0
-84 53 3 52 3 0 120 0 120 -39 13 c-58 19 -231 24 -291 9z"/>
<path d="M8808 6380 c-54 -4 -104 -10 -113 -14 -13 -5 -15 -66 -15 -496 l0
-490 60 0 60 0 0 220 0 221 91 -3 90 -3 117 -217 117 -218 68 0 68 0 -24 43
c-81 141 -227 404 -232 417 -3 10 6 22 31 35 166 89 181 358 26 456 -77 49
-173 62 -344 49z m246 -122 c59 -33 89 -94 83 -170 -6 -72 -33 -116 -89 -148
-36 -20 -60 -25 -145 -28 l-103 -4 0 185 0 186 33 4 c69 10 179 -2 221 -25z"/>
<path d="M10085 6370 c-25 -4 -53 -37 -185 -222 l-155 -217 -57 0 -58 -1 0
220 0 220 -55 0 -55 0 0 -495 0 -495 55 0 55 0 0 230 0 230 59 0 58 0 173
-230 174 -230 73 0 73 0 -142 188 c-79 103 -166 218 -195 256 -29 37 -53 72
-53 77 0 7 272 380 332 455 10 14 -50 22 -97 14z"/>
<path d="M6890 6240 l0 -130 50 0 50 0 0 80 0 80 105 0 105 0 0 -395 0 -395
-80 0 -80 0 0 -50 0 -50 215 0 215 0 0 50 0 50 -79 0 -78 0 1 393 1 392 103 3
102 3 0 -81 0 -81 53 3 52 3 3 128 3 127 -371 0 -370 0 0 -130z"/>
<path d="M7770 6008 c0 -394 6 -445 54 -518 56 -85 162 -125 315 -118 153 7
232 53 285 167 20 44 21 64 24 439 l3 392 -55 0 -55 0 -3 -377 c-3 -325 -5
-383 -19 -414 -37 -80 -111 -116 -224 -107 -85 7 -133 33 -170 93 l-30 48 -3
379 -3 378 -60 0 -59 0 0 -362z"/>
<path d="M2653 6303 c-20 -31 -24 -133 -9 -264 l9 -76 -288 -6 c-159 -4 -361
-7 -450 -7 -147 0 -163 -2 -167 -17 -12 -50 -11 -50 220 -57 249 -8 567 -24
630 -32 l42 -5 0 -84 0 -83 -82 -7 c-104 -8 -118 -12 -118 -34 0 -15 12 -19
68 -24 37 -4 84 -7 105 -7 30 0 37 -4 37 -20 0 -17 -7 -20 -51 -20 -31 0 -48
-4 -44 -10 3 -5 26 -10 49 -10 34 0 47 -5 58 -22 l15 -22 12 22 c9 17 21 22
54 22 23 0 49 5 57 10 11 7 -2 10 -44 10 -49 0 -57 3 -52 16 3 9 6 18 6 20 0
2 17 4 38 4 20 0 67 3 105 7 55 5 67 9 67 24 0 22 -13 26 -122 34 l-88 7 0 83
0 84 43 5 c62 8 390 25 640 32 l217 7 0 33 0 34 -172 0 c-95 0 -298 3 -451 7
l-279 6 7 146 c6 121 5 152 -8 184 -19 44 -30 46 -54 10z"/>
<path d="M6160 5785 l0 -55 243 2 242 3 -1 30 c-1 17 -2 40 -3 53 l-1 22 -240
0 -240 0 0 -55z"/>
</g>
</svg>
